<?xml version="1.0" encoding="UTF-8" standalone="no"?>
<svg
   xmlns:dc="http://purl.org/dc/elements/1.1/"
   xmlns:cc="http://creativecommons.org/ns#"
   xmlns:rdf="http://www.w3.org/1999/02/22-rdf-syntax-ns#"
   xmlns:svg="http://www.w3.org/2000/svg"
   xmlns="http://www.w3.org/2000/svg"
   id="svg48"
   version="1.1"
   width="726"
   height="1000">
  <metadata
     id="metadata54">
    <rdf:RDF>
      <cc:Work
         rdf:about="">
        <dc:format>image/svg+xml</dc:format>
        <dc:type
           rdf:resource="http://purl.org/dc/dcmitype/StillImage" />
      </cc:Work>
    </rdf:RDF>
  </metadata>
  <defs
     id="defs52" />
  <path
     stroke-width="1.000000"
     stroke-linejoin="round"
     stroke-linecap="round"
     stroke="#000000"
     id="curve_0"
     fill="none"
     d="M292.05,245.019 L323.403,206.127" />
  <path
     stroke-width="1.000000"
     stroke-linejoin="round"
     stroke-linecap="round"
     stroke="#000000"
     id="curve_1"
     fill="none"
     d="M235.818,633.785 Q304.249,727.142 355.322,813.378" />
  <path
     stroke-width="1.000000"
     stroke-linejoin="round"
     stroke-linecap="round"
     stroke="#000000"
     id="curve_2"
     fill="none"
     d="M394.742,284.383 Q444.783,279.079 466.756,327.968" />
  <path
     stroke-width="1.000000"
     stroke-linejoin="round"
     stroke-linecap="round"
     stroke="#000000"
     id="curve_3"
     fill="none"
     d="M426.71,330.747 Q418.687,304.969 438.884,293.322" />
  <path
     stroke-width="1.000000"
     stroke-linejoin="round"
     stroke-linecap="round"
     stroke="#000000"
     id="curve_4"
     fill="none"
     d="M585.96,493.01 Q518.114,431.28 452.677,385.792" />
  <path
     stroke-width="1.000000"
     stroke-linejoin="round"
     stroke-linecap="round"
     stroke="#000000"
     id="curve_5"
     fill="none"
     d="M327.681,267.853 Q303.387,233.797 270.397,250.51" />
  <path
     stroke-width="1.000000"
     stroke-linejoin="round"
     stroke-linecap="round"
     stroke="#000000"
     id="curve_6"
     fill="none"
     d="M326.204,390.206 C213.807,425.517 266.387,308.142 270.397,250.51" />
  <path
     stroke-width="1.000000"
     stroke-linejoin="round"
     stroke-linecap="round"
     stroke="#000000"
     id="curve_7"
     fill="none"
     d="M257.673,375.549 C359.946,355.388 383.555,476.145 361.414,587.074" />
  <path
     stroke-width="1.000000"
     stroke-linejoin="round"
     stroke-linecap="round"
     stroke="#000000"
     id="curve_8"
     fill="none"
     d="M375.981,800.411 C396.806,823.605 399.048,870.246 364.666,878.008" />
  <path
     stroke-width="1.000000"
     stroke-linejoin="round"
     stroke-linecap="round"
     stroke="#000000"
     id="curve_9"
     fill="none"
     d="M317.532,640.869 C326.134,680.036 354.9,649.259 371.65,637.624" />
  <path
     stroke-width="1.000000"
     stroke-linejoin="round"
     stroke-linecap="round"
     stroke="#000000"
     id="curve_10"
     fill="none"
     d="M268.164,268.119 C269.308,387.918 443.989,292.905 470.545,378.348" />
  <path
     stroke-width="1.000000"
     stroke-linejoin="round"
     stroke-linecap="round"
     stroke="#000000"
     id="curve_11"
     fill="none"
     d="M537.79,582.987 C458.704,437.505 305.527,378.858 324.909,183.585" />
  <path
     stroke-width="1.000000"
     stroke-linejoin="round"
     stroke-linecap="round"
     stroke="#000000"
     id="curve_12"
     fill="none"
     d="M333.405,921.654 C362.123,823.907 369.045,684.716 368.363,580.463" />
  <path
     stroke-width="1.000000"
     stroke-linejoin="round"
     stroke-linecap="round"
     stroke="#000000"
     id="curve_13"
     fill="none"
     d="M368.116,918.14 Q357.955,941.857 333.405,921.654" />
  <path
     stroke-width="1.000000"
     stroke-linejoin="round"
     stroke-linecap="round"
     stroke="#000000"
     id="curve_14"
     fill="none"
     d="M429.665,659.372 C413.832,602.514 398.079,509.006 415.513,427.135" />
  <path
     stroke-width="1.000000"
     stroke-linejoin="round"
     stroke-linecap="round"
     stroke="#000000"
     id="curve_15"
     fill="none"
     d="M387.032,392.504 C416.924,336.765 452.004,410.093 470.545,378.348" />
  <path
     stroke-width="1.000000"
     stroke-linejoin="round"
     stroke-linecap="round"
     stroke="#000000"
     id="curve_16"
     fill="none"
     d="M314.344,144.951 Q354.526,140.985 397.779,104.093" />
  <path
     stroke-width="1.000000"
     stroke-linejoin="round"
     stroke-linecap="round"
     stroke="#000000"
     id="curve_17"
     fill="none"
     d="M468.449,554.918 C434.749,545.159 443.374,488.353 408.988,474.096" />
  <path
     stroke-width="1.000000"
     stroke-linejoin="round"
     stroke-linecap="round"
     stroke="#000000"
     id="curve_18"
     fill="none"
     d="M399.076,666.684 C403.664,749.543 350.923,825.799 368.116,918.14" />
  <path
     stroke-width="1.000000"
     stroke-linejoin="round"
     stroke-linecap="round"
     stroke="#000000"
     id="curve_19"
     fill="none"
     d="M411.064,562.117 Q384.192,615.049 399.076,666.684" />
  <path
     stroke-width="1.000000"
     stroke-linejoin="round"
     stroke-linecap="round"
     stroke="#000000"
     id="curve_20"
     fill="none"
     d="M460.153,477.212 C445.383,538.522 475.603,561.959 493.833,603.697" />
  <path
     stroke-width="1.000000"
     stroke-linejoin="round"
     stroke-linecap="round"
     stroke="#000000"
     id="curve_21"
     fill="none"
     d="M426.522,647.574 C414.055,679.039 374.685,674.187 371.65,637.624" />
  <path
     stroke-width="1.000000"
     stroke-linejoin="round"
     stroke-linecap="round"
     stroke="#000000"
     id="curve_22"
     fill="none"
     d="M349.386,217.151 C419.374,161.871 418.709,22.4281 315.316,23.4009" />
  <path
     stroke-width="1.000000"
     stroke-linejoin="round"
     stroke-linecap="round"
     stroke="#000000"
     id="curve_23"
     fill="none"
     d="M315.09,123.402 C253.553,105.229 283.377,39.8416 315.316,23.4009" />
  <path
     stroke-width="1.000000"
     stroke-linejoin="round"
     stroke-linecap="round"
     stroke="#000000"
     id="curve_24"
     fill="none"
     d="M282.838,488.895 Q308.083,518.948 350.665,505.663" />
  <path
     stroke-width="1.000000"
     stroke-linejoin="round"
     stroke-linecap="round"
     stroke="#000000"
     id="curve_25"
     fill="none"
     d="M300.398,435.151 Q256.132,441.053 262.299,384.595" />
  <path
     stroke-width="1.000000"
     stroke-linejoin="round"
     stroke-linecap="round"
     stroke="#000000"
     id="curve_26"
     fill="none"
     d="M229.83,468.342 C223.674,485.414 186.799,478.521 212.845,499.34" />
  <path
     stroke-width="1.000000"
     stroke-linejoin="round"
     stroke-linecap="round"
     stroke="#000000"
     id="curve_27"
     fill="none"
     d="M142.155,591.151 C157.691,556.771 184.325,529.574 212.845,499.34" />
  <path
     stroke-width="1.000000"
     stroke-linejoin="round"
     stroke-linecap="round"
     stroke="#000000"
     id="curve_28"
     fill="none"
     d="M259.788,622.451 C305.05,680.376 331.378,636.183 335.467,593.637" />
  <path
     stroke-width="1.000000"
     stroke-linejoin="round"
     stroke-linecap="round"
     stroke="#000000"
     id="curve_29"
     fill="none"
     d="M288.909,467.682 C234.76,484.038 176.99,436.292 123.49,492.155" />
  <path
     stroke-width="1.000000"
     stroke-linejoin="round"
     stroke-linecap="round"
     stroke="#000000"
     id="curve_30"
     fill="none"
     d="M230.169,634.932 C224.199,563.026 338.484,608.942 361.414,587.074" />
  <path
     stroke-width="1.000000"
     stroke-linejoin="round"
     stroke-linecap="round"
     stroke="#000000"
     id="curve_31"
     fill="none"
     d="M366.015,229.053 Q362.212,279.724 336.824,302.088" />
  <path
     stroke-width="1.000000"
     stroke-linejoin="round"
     stroke-linecap="round"
     stroke="#000000"
     id="curve_32"
     fill="none"
     d="M280.738,523.176 C208.233,498.905 231.717,619.244 270.933,592.899" />
  <path
     stroke-width="1.000000"
     stroke-linejoin="round"
     stroke-linecap="round"
     stroke="#000000"
     id="curve_33"
     fill="none"
     d="M537.79,582.987 C493.075,568.092 488.788,648.255 449.915,619.545" />
  <path
     stroke-width="1.000000"
     stroke-linejoin="round"
     stroke-linecap="round"
     stroke="#000000"
     id="curve_34"
     fill="none"
     d="M429.665,659.372 C441.798,635.071 431.608,622.759 449.915,619.545" />
  <path
     stroke-width="1.000000"
     stroke-linejoin="round"
     stroke-linecap="round"
     stroke="#000000"
     id="curve_35"
     fill="none"
     d="M634.321,381.399 C630.166,425.325 606.63,450.706 614.162,493.903" />
  <path
     stroke-width="1.000000"
     stroke-linejoin="round"
     stroke-linecap="round"
     stroke="#000000"
     id="curve_36"
     fill="none"
     d="M458.207,357.484 C525.785,326.01 575.26,379.447 634.321,381.399" />
  <path
     stroke-width="1.000000"
     stroke-linejoin="round"
     stroke-linecap="round"
     stroke="#000000"
     id="curve_37"
     fill="none"
     d="M349.765,333.446 C405.139,301.709 394.247,281.572 402.169,234.853" />
  <path
     stroke-width="1.000000"
     stroke-linejoin="round"
     stroke-linecap="round"
     stroke="#000000"
     id="curve_38"
     fill="none"
     d="M389.621,68.8514 C258.172,72.8999 321.88,249.997 402.169,234.853" />
  <path
     stroke-width="1.000000"
     stroke-linejoin="round"
     stroke-linecap="round"
     stroke="#000000"
     id="curve_39"
     fill="none"
     d="M537.79,582.987 C610.537,581.986 516.973,477.603 614.162,493.903" />
  <path
     stroke-width="1.000000"
     stroke-linejoin="round"
     stroke-linecap="round"
     stroke="#000000"
     id="curve_40"
     fill="none"
     d="M350.665,505.663 Q342.523,557.664 368.363,580.463" />
  <path
     stroke-width="1.000000"
     stroke-linejoin="round"
     stroke-linecap="round"
     stroke="#000000"
     id="curve_41"
     fill="none"
     d="M284.99,315.456 C278.26,264.848 312.132,299.604 334.904,296.168" />
  <path
     stroke-width="1.000000"
     stroke-linejoin="round"
     stroke-linecap="round"
     stroke="#000000"
     id="curve_42"
     fill="none"
     d="M179.153,584.477 C134.192,626.466 57.128,516.23 123.49,492.155" />
  <path
     stroke-width="1.000000"
     stroke-linejoin="round"
     stroke-linecap="round"
     stroke="#000000"
     id="curve_43"
     fill="none"
     d="M179.153,584.477 C179.24,600.416 169.249,614.925 183.337,621.381" />
  <path
     stroke-width="1.000000"
     stroke-linejoin="round"
     stroke-linecap="round"
     stroke="#000000"
     id="curve_44"
     fill="none"
     d="M307.224,506.539 C290.52,553.11 283,674.145 183.337,621.381" />
  <path
     stroke-width="1.000000"
     stroke-linejoin="round"
     stroke-linecap="round"
     stroke="#000000"
     id="curve_45"
     fill="none"
     d="M290.669,566.052 C243.416,449.108 368.686,316.83 466.756,327.968" />
</svg>
